<mxfile host="app.diagrams.net" modified="2024-05-02T20:04:16.752Z" agent="Mozilla/5.0 (Windows NT 10.0; Win64; x64) AppleWebKit/537.36 (KHTML, like Gecko) Chrome/124.0.0.0 Safari/537.36" etag="cZzRYwvMyQfwouqn2z_s" version="24.3.0" type="github">
  <diagram name="Page-1" id="zPGDHv05z2K2E5gPDwiq">
    <mxGraphModel dx="2440" dy="1381" grid="1" gridSize="10" guides="1" tooltips="1" connect="1" arrows="1" fold="1" page="1" pageScale="1" pageWidth="850" pageHeight="1100" math="0" shadow="0">
      <root>
        <mxCell id="0" />
        <mxCell id="1" parent="0" />
        <mxCell id="8-jCQ_h3NljkXokE8UQO-10" value="" style="group" vertex="1" connectable="0" parent="1">
          <mxGeometry x="130" y="110" width="240" height="200" as="geometry" />
        </mxCell>
        <mxCell id="8-jCQ_h3NljkXokE8UQO-9" value="" style="rounded=0;whiteSpace=wrap;html=1;" vertex="1" parent="8-jCQ_h3NljkXokE8UQO-10">
          <mxGeometry width="240" height="200" as="geometry" />
        </mxCell>
        <mxCell id="8-jCQ_h3NljkXokE8UQO-1" value="MTCA Crate" style="swimlane;whiteSpace=wrap;html=1;" vertex="1" parent="8-jCQ_h3NljkXokE8UQO-10">
          <mxGeometry width="240" height="200" as="geometry" />
        </mxCell>
      </root>
    </mxGraphModel>
  </diagram>
</mxfile>
